<?xml version="1.0" encoding="UTF-8"?>
<svg width="1253px" height="800px" viewBox="-2 3 1253 800" xmlns="http://www.w3.org/2000/svg" xmlns:xlink="http://www.w3.org/1999/xlink" version="1.1">
 <!-- Generated by Pixelmator Pro 2.0.6 -->
 <g id="New-Group">
  <g id="New-Group-1">
   <path id="Rectangle" d="M558.256 788.942 L1069 788.942 1069 278.869 558.256 278.869 Z" fill="#ffffff" fill-opacity="0.097" stroke="#000000" stroke-width="20.88" stroke-opacity="1" stroke-linejoin="round" stroke-linecap="round"/>
   <path id="Rectangle-1" d="M134.715 788.942 L558.256 788.942 558.256 278.869 134.715 278.869 Z" fill="#ffffff" fill-opacity="0.102" stroke="#000000" stroke-width="20.88" stroke-opacity="1" stroke-linejoin="round" stroke-linecap="round"/>
   <path id="Path" d="M135.615 278.869 L549.945 278.869 408.246 112.747 11.636 112.747 Z" fill="#ffffff" fill-opacity="0.104" stroke="#000000" stroke-width="20.88" stroke-opacity="1" stroke-linejoin="round" stroke-linecap="round"/>
   <path id="Path-copy" d="M1072.333 277.207 L698.104 277.207 885.218 111.084 1238.364 111.084 Z" fill="#ffffff" fill-opacity="0.098" stroke="#000000" stroke-width="20.88" stroke-opacity="1" stroke-linejoin="round" stroke-linecap="round"/>
   <path id="Rectangle-2" d="M775.456 432.488 L879.85 432.488 879.85 278.869 775.456 278.869 Z" fill="#ffffff" fill-opacity="0.4" stroke="#000000" stroke-width="20.88" stroke-opacity="1" stroke-linejoin="round" stroke-linecap="round"/>
  </g>
  <defs>
   <text id="string" transform="matrix(1.0 0.0 0.0 1.0 222.62337662338 377.51476793248)" text-decoration="none" font-family="Rancho-Regular, Rancho" y="223.0" fill="#000000" x="1.0" font-size="248.669">&lt;F&gt;</text>
  </defs>
  <use id="&lt;F&gt;" xlink:href="#string"/>
  <g id="New-Group-2">
   <path id="Line" d="M489.001 53 L529 135" fill="none" stroke="#000000" stroke-width="20" stroke-opacity="1" stroke-linejoin="round" stroke-linecap="round"/>
   <path id="Line-copy" d="M748.999 61 L721 132" fill="none" stroke="#000000" stroke-width="20" stroke-opacity="1" stroke-linejoin="round" stroke-linecap="round"/>
   <path id="Line-1" d="M624 127 L624.999 26.843" fill="none" stroke="#000000" stroke-width="20" stroke-opacity="1" stroke-linejoin="round" stroke-linecap="round"/>
  </g>
 </g>
</svg>
